<?xml version="1.0" encoding="UTF-8"?> <svg xmlns="http://www.w3.org/2000/svg" width="42" height="42" viewBox="0 0 42 42" fill="none"> <path fill-rule="evenodd" clip-rule="evenodd" d="M42 21C42 32.598 32.598 42 21 42C9.40202 42 0 32.598 0 21C0 9.40202 9.40202 0 21 0C32.598 0 42 9.40202 42 21ZM21.687 32.6835H21.6922C28.5771 32.6806 34.1766 27.0797 34.1794 20.1963C34.1807 16.8598 32.883 13.7225 30.5254 11.3622C28.1678 9.00188 25.0326 7.70144 21.6921 7.7C14.8092 7.7 9.20743 13.3015 9.20469 20.1865C9.20376 22.3873 9.77877 24.5355 10.8715 26.4292L9.1 32.9L15.7197 31.1635C17.5436 32.1584 19.5971 32.6827 21.687 32.6835Z" fill="#0E9695"></path> <path fill-rule="evenodd" clip-rule="evenodd" d="M16.4053 29.128L16.0263 28.9031L12.0981 29.9335L13.1466 26.1036L12.8999 25.7109C11.8609 24.0584 11.3122 22.1485 11.313 20.1874C11.3153 14.4649 15.9713 9.80933 21.6962 9.80933C24.4684 9.81029 27.0744 10.8912 29.0339 12.8531C30.9935 14.8149 32.072 17.4225 32.0709 20.1958C32.0686 25.9187 27.4127 30.5747 21.6922 30.5747H21.6879C19.8255 30.574 17.9989 30.0737 16.4053 29.128ZM27.5558 22.885C27.7734 22.9902 27.9204 23.0612 27.9831 23.1659C28.0611 23.296 28.0611 23.9207 27.8012 24.6497C27.5411 25.3785 26.2946 26.0437 25.6951 26.1332C25.1576 26.2136 24.4773 26.2471 23.7299 26.0096C23.2767 25.8658 22.6956 25.6738 21.9512 25.3523C19.0261 24.0893 17.0493 21.2543 16.6757 20.7185C16.6496 20.6809 16.6313 20.6547 16.6211 20.641L16.6185 20.6377C16.4534 20.4174 15.347 18.9412 15.347 17.4134C15.347 15.9761 16.053 15.2228 16.378 14.8761C16.4002 14.8523 16.4207 14.8305 16.439 14.8104C16.725 14.4981 17.0631 14.42 17.2711 14.42C17.4791 14.42 17.6873 14.4219 17.8691 14.431C17.8915 14.4321 17.9149 14.432 17.939 14.4319C18.1208 14.4308 18.3475 14.4295 18.5711 14.9666C18.6571 15.1733 18.783 15.4798 18.9158 15.803C19.1843 16.4567 19.4809 17.1789 19.5331 17.2834C19.6111 17.4396 19.6631 17.6217 19.5591 17.83C19.5435 17.8613 19.5291 17.8907 19.5153 17.9189C19.4371 18.0784 19.3797 18.1957 19.2471 18.3505C19.195 18.4114 19.1411 18.477 19.0872 18.5426C18.9799 18.6733 18.8725 18.804 18.7791 18.8971C18.6229 19.0527 18.4603 19.2215 18.6423 19.5339C18.8243 19.8463 19.4505 20.868 20.378 21.6954C21.3751 22.5847 22.2417 22.9606 22.681 23.1511C22.7668 23.1884 22.8362 23.2185 22.8872 23.244C23.1991 23.4002 23.3811 23.3741 23.5631 23.1659C23.7452 22.9577 24.3431 22.2548 24.5511 21.9425C24.7591 21.6302 24.9671 21.6823 25.2531 21.7863C25.5392 21.8906 27.0732 22.6453 27.3852 22.8015C27.4461 22.832 27.503 22.8595 27.5558 22.885Z" fill="#0E9695"></path> </svg> 