<?xml version="1.0" encoding="UTF-8"?> <svg xmlns="http://www.w3.org/2000/svg" width="441" height="441" viewBox="0 0 441 441" fill="none"> <g clip-path="url(#clip0)"> <path d="M135.591 284.025C131.841 285.03 129.614 288.889 130.618 292.639C131.623 296.389 135.482 298.616 139.232 297.612C142.981 296.607 145.209 292.748 144.204 288.998C143.2 285.249 139.341 283.021 135.591 284.025Z" fill="#E2E2E2"></path> <path d="M318.021 95.3528L250.09 113.555C246.339 114.56 244.112 118.416 245.118 122.168L280.065 252.594C287.091 278.814 271.475 305.862 245.255 312.887C219.085 319.9 192.03 304.456 184.962 278.077L150.014 147.651C149.009 143.899 145.152 141.673 141.401 142.678L73.471 160.88C69.7199 161.885 67.4929 165.741 68.4982 169.493L103.446 299.919C122.515 371.087 195.929 413.473 267.097 394.403C338.266 375.334 380.651 301.92 361.581 230.752L326.634 100.326C325.629 96.5739 321.772 94.3477 318.021 95.3528ZM83.9045 172.646L138.249 158.084L151.355 206.994L97.01 221.556L83.9045 172.646ZM347.995 234.393C365.057 298.069 327.133 363.756 263.457 380.818C199.781 397.88 134.094 359.955 117.032 296.279L100.65 235.142L154.995 220.58L171.377 281.717C180.393 315.366 214.981 335.561 248.895 326.474C282.607 317.441 302.684 282.666 293.651 248.954L277.269 187.817L331.614 173.256L347.995 234.393ZM327.973 159.669L273.629 174.23L260.523 125.32L314.868 110.759L327.973 159.669Z" fill="#E2E2E2"></path> <path d="M198.061 349.978C180.044 342.619 164.571 329.489 154.491 313.011C152.464 309.697 148.135 308.652 144.821 310.681C141.508 312.708 140.465 317.037 142.491 320.35C154.124 339.367 171.97 354.513 192.742 362.999C196.336 364.468 200.443 362.745 201.912 359.148C203.381 355.553 201.657 351.447 198.061 349.978Z" fill="#E2E2E2"></path> <path d="M106.31 97.2873C104.536 95.6164 102.022 94.9829 99.6679 95.6138L83.4875 99.9494L87.5116 80.2847C88.2896 76.4795 85.8362 72.7633 82.0309 71.9846C78.226 71.205 74.51 73.6591 73.7313 77.4644L67.4259 108.277C66.9372 110.665 67.72 113.135 69.4943 114.806C71.2686 116.477 73.782 117.111 76.1365 116.48L92.3169 112.144L88.2929 131.809C87.5142 135.614 89.9675 139.331 93.7736 140.109C97.5913 140.89 101.297 138.422 102.073 134.629L108.379 103.817C108.867 101.429 108.084 98.9583 106.31 97.2873Z" fill="#E2E2E2"></path> <path d="M296.515 46.3219C294.741 44.6509 292.227 44.0175 289.873 44.6484L273.692 48.9839L277.716 29.3192C278.495 25.514 276.041 21.7978 272.236 21.0191C268.431 20.2395 264.715 22.6936 263.936 26.499L257.631 57.3117C257.142 59.6997 257.925 62.17 259.699 63.841C261.474 65.5119 263.987 66.1454 266.341 65.5145L282.522 61.1789L278.498 80.8436C277.719 84.649 280.172 88.3652 283.979 89.1437C287.796 89.9249 291.502 87.4561 292.278 83.6639L298.583 52.8511C299.072 50.4632 298.289 47.9928 296.515 46.3219Z" fill="#E2E2E2"></path> </g> <defs> <clipPath id="clip0"> <rect width="90" height="90" fill="white" transform="translate(0 93.1942) scale(4.00083) rotate(-15)"></rect> </clipPath> </defs> </svg> 