<?xml version="1.0" encoding="UTF-8"?> <svg xmlns="http://www.w3.org/2000/svg" width="760" height="760" viewBox="0 0 760 760" fill="none"> <path d="M720.39 0H39.6331C17.881 0 0.184326 17.6967 0.184326 39.4487V488.089C0.184326 509.84 17.881 527.536 39.6331 527.536H141.743L84.2371 704.964C80.774 715.648 81.678 727.041 86.7857 737.046C91.8935 747.05 100.589 754.466 111.273 757.929C115.541 759.313 119.923 759.999 124.284 759.999C130.841 759.999 137.35 758.447 143.357 755.381C153.36 750.274 160.777 741.577 164.24 730.893L185.656 664.82H574.367L578.639 678.003C580.536 683.853 586.817 687.059 592.665 685.162C598.515 683.265 601.721 676.986 599.824 671.136L553.282 527.535H594.865L654.598 711.829C656.228 716.854 655.802 722.214 653.4 726.919C650.997 731.625 646.907 735.113 641.881 736.743C631.505 740.105 620.33 734.4 616.967 724.029L615.879 720.672C613.984 714.82 607.712 711.617 601.855 713.509C596.005 715.405 592.799 721.684 594.694 727.534L595.782 730.893C601.542 748.658 618.073 759.981 635.813 759.981C640.098 759.981 644.457 759.32 648.749 757.928C659.434 754.465 668.131 747.049 673.237 737.044C678.343 727.039 679.249 715.647 675.786 704.962L618.28 527.535H720.393C742.146 527.535 759.841 509.838 759.841 488.088V39.4487C759.84 17.6967 742.143 0 720.39 0V0ZM143.054 724.028C141.426 729.052 137.936 733.145 133.23 735.546C128.525 737.948 123.165 738.374 118.14 736.744C113.114 735.116 109.025 731.626 106.621 726.922C104.218 722.217 103.794 716.858 105.424 711.832L165.156 527.538H206.74L143.054 724.028ZM192.873 642.552L202.583 612.59H557.437L567.147 642.552H192.873ZM209.802 590.32L230.151 527.538H529.87L550.218 590.32H209.802ZM737.568 488.089C737.568 497.561 729.862 505.266 720.39 505.266H39.6331C30.1613 505.266 22.4559 497.56 22.4559 488.089V39.4487C22.4559 29.977 30.1628 22.2716 39.6331 22.2716H720.39C729.862 22.2716 737.568 29.977 737.568 39.4487V488.089Z" fill="#303C52"></path> <path d="M693.108 47.1255H267.976C261.826 47.1255 256.84 52.1115 256.84 58.2613C256.84 64.4111 261.826 69.3971 267.976 69.3971H692.136V458.141H67.8643V69.3956H216.018C222.168 69.3956 227.154 64.4096 227.154 58.2598C227.154 52.11 222.168 47.124 216.018 47.124H66.8906C55.1477 47.124 45.5928 56.6789 45.5928 68.4218V459.112C45.5928 470.855 55.1477 480.41 66.8906 480.41H693.108C704.853 480.41 714.406 470.855 714.406 459.112V68.4233C714.406 56.6789 704.853 47.1255 693.108 47.1255Z" fill="#303C52"></path> <path d="M179.93 202.322C186.08 202.322 191.066 197.337 191.066 191.188C191.066 185.038 186.08 180.052 179.93 180.052H119.339C113.19 180.052 108.204 185.038 108.204 191.188V334.985C108.204 341.135 113.19 346.121 119.339 346.121H179.93C186.08 346.121 191.066 341.135 191.066 334.985C191.066 328.835 186.08 323.849 179.93 323.849H130.475V274.221H175.462C181.612 274.221 186.598 269.235 186.598 263.085C186.598 256.935 181.612 251.949 175.462 251.949H130.475V202.32H179.93V202.322Z" fill="#303C52"></path> <path d="M536.413 257.23C543.226 257.23 549.796 259.235 555.412 263.028C560.508 266.47 567.431 265.13 570.872 260.034C574.312 254.938 572.973 248.017 567.878 244.573C558.566 238.282 547.686 234.957 536.413 234.957C505.39 234.957 480.149 260.196 480.149 291.219C480.149 322.243 505.39 347.482 536.413 347.482C548.808 347.482 559.933 343.408 568.586 335.703C570.279 334.196 571.89 332.532 573.376 330.763C577.327 326.05 576.711 319.028 571.998 315.076C567.285 311.125 560.261 311.741 556.31 316.452C555.519 317.398 554.664 318.278 553.774 319.071C549.2 323.145 543.359 325.211 536.413 325.211C517.668 325.211 502.419 309.963 502.419 291.219C502.419 272.479 517.668 257.23 536.413 257.23Z" fill="#303C52"></path> <path d="M434.429 289.508V335.672C434.429 341.822 439.414 346.808 445.565 346.808C451.716 346.808 456.701 341.822 456.701 335.672V289.754C457.605 268.957 454.044 255.1 445.5 246.164C438.823 239.179 429.347 235.637 417.332 235.637C404.981 235.637 394.758 239.985 387.495 247.703C381.058 239.373 371.593 235.171 359.128 235.171C350.92 235.171 343.508 237.426 337.213 241.508C335.788 237 331.574 233.732 326.595 233.732C320.445 233.732 315.459 238.717 315.459 244.867V335.673C315.459 341.823 320.445 346.809 326.595 346.809C332.745 346.809 337.731 341.823 337.731 335.673V288.874C337.731 288.821 337.738 288.77 337.738 288.717C337.738 269.718 346.134 257.442 359.127 257.442C365.64 257.442 374.56 257.442 375.354 284.348C375.378 285.193 375.39 286.066 375.397 286.946L375.381 335.672C375.381 341.822 380.367 346.808 386.517 346.808C392.666 346.808 397.652 341.822 397.652 335.672L397.678 282.597C397.679 271.335 401.09 257.908 417.331 257.908C425.916 257.908 428.539 260.653 429.402 261.554C432.134 264.414 435.229 271.498 434.44 289.006C434.434 289.174 434.429 289.34 434.429 289.508Z" fill="#303C52"></path> <path d="M273.298 259.316H230.134C223.985 259.316 218.999 264.302 218.999 270.452C218.999 276.602 223.985 281.586 230.134 281.586H273.298C279.448 281.586 284.434 276.602 284.434 270.452C284.434 264.302 279.448 259.316 273.298 259.316Z" fill="#303C52"></path> <path d="M273.298 298.953H230.134C223.985 298.953 218.999 303.939 218.999 310.089C218.999 316.239 223.985 321.223 230.134 321.223H273.298C279.448 321.223 284.434 316.239 284.434 310.089C284.434 303.939 279.448 298.953 273.298 298.953Z" fill="#303C52"></path> <path d="M647.997 214.166C649.146 208.577 648.864 202.812 646.294 197.122C641.655 186.852 631.168 180.052 619.896 180.052C606.094 180.052 594.148 189.871 591.491 203.399C590.305 209.433 594.237 215.288 600.271 216.472C606.309 217.654 612.159 213.726 613.344 207.692C613.955 204.58 616.71 202.32 619.896 202.32C623.396 202.32 626.276 205.028 626.55 208.458L626.399 209.644C625.814 211.834 624.37 215.375 620.84 220.418C609.851 236.117 603.299 244.698 599.777 249.308C595.343 255.114 592.413 258.951 594.249 264.921C595.334 268.451 598.104 271.267 601.666 272.456C603.136 272.945 604.246 273.314 618.138 273.314C623.519 273.314 630.818 273.259 640.796 273.132C646.946 273.055 651.869 268.007 651.791 261.859C651.715 255.756 646.745 250.864 640.659 250.864C640.612 250.864 640.564 250.864 640.517 250.864C635.826 250.923 630.925 250.968 626.346 250.996C629.737 246.375 633.938 240.54 639.084 233.188C643.135 227.406 646.61 220.917 647.997 214.166Z" fill="#303C52"></path> </svg> 