<?xml version="1.0" encoding="UTF-8"?> <svg xmlns="http://www.w3.org/2000/svg" width="735" height="735" viewBox="0 0 735 735" fill="none"> <g clip-path="url(#clip0)"> <path d="M347.169 339.863C327.194 334.511 306.583 346.408 301.23 366.386C295.877 386.363 307.775 406.972 327.753 412.324C347.73 417.677 368.339 405.779 373.692 385.802C379.044 365.824 367.143 345.215 347.169 339.863ZM333.301 391.618C324.74 389.324 319.64 380.491 321.934 371.931C324.228 363.37 333.061 358.27 341.622 360.564C350.182 362.858 355.282 371.691 352.988 380.252C350.695 388.812 341.864 393.913 333.301 391.618Z" fill="#E2E2E2"></path> <path d="M535.697 567.892C518.451 563.271 500.98 565.106 485.82 571.865L430.663 485.967C444.276 472.894 454.687 456.164 459.918 436.642C474.276 383.056 445.19 327.897 394.35 308.691L416.902 224.528C453.311 228.873 488.442 205.97 498.205 169.536C508.913 129.582 485.118 88.3675 445.163 77.6618C405.209 66.9561 363.992 90.7507 353.286 130.705C343.524 167.137 362.497 204.537 396.2 218.982L373.649 303.144C320.017 294.359 267.248 327.586 252.891 381.169C247.661 400.686 248.31 420.377 253.559 438.501L163.33 485.955C153.572 472.204 139.162 461.641 121.641 456.946C81.6866 446.241 40.472 470.036 29.7662 509.99C19.0605 549.944 42.8558 591.159 82.8101 601.865C122.764 612.57 163.981 588.776 174.687 548.822C178.702 533.837 177.863 518.676 173.141 505.013L261.592 458.492C275.013 484.127 298.579 504.357 328.668 512.419C358.757 520.481 389.282 514.746 413.723 499.255L467.681 583.285C456.466 592.808 447.911 605.681 443.823 620.936C433.117 660.89 456.912 702.105 496.867 712.811C536.821 723.516 578.036 699.721 588.741 659.767C599.447 619.813 575.652 578.598 535.697 567.892ZM88.3576 581.161C59.8199 573.514 42.8215 544.072 50.4681 515.534C58.1148 486.997 87.557 469.998 116.095 477.645C144.632 485.292 161.631 514.734 153.984 543.271C146.337 571.812 116.895 588.808 88.3576 581.161ZM373.99 136.253C381.637 107.715 411.079 90.7164 439.617 98.363C468.154 106.01 485.153 135.452 477.506 163.99C469.859 192.527 440.417 209.526 411.88 201.879C383.342 194.232 366.343 164.79 373.99 136.253ZM334.218 491.716C288.557 479.481 261.363 432.376 273.597 386.717C285.831 341.059 332.937 313.862 378.596 326.096C424.254 338.331 451.451 385.436 439.217 431.095C426.982 476.754 379.877 503.95 334.218 491.716ZM502.414 692.107C473.877 684.46 456.878 655.018 464.525 626.481C468.294 612.414 477.387 601.197 489.027 594.308L489.685 593.886C501.535 587.099 515.952 584.786 530.151 588.591C558.689 596.238 575.687 625.68 568.041 654.218C560.391 682.757 530.949 699.753 502.414 692.107Z" fill="#E2E2E2"></path> <path d="M527.377 598.946C504.546 592.829 480.995 606.426 474.877 629.257C473.346 634.974 476.74 640.85 482.455 642.381C488.169 643.912 494.047 640.518 495.579 634.804C498.638 623.387 510.411 616.588 521.83 619.647C527.547 621.179 533.423 617.785 534.954 612.07C536.486 606.353 533.091 600.478 527.377 598.946Z" fill="#E2E2E2"></path> <path d="M113.32 488C90.4891 481.883 66.9379 495.48 60.8205 518.311C59.2886 524.028 62.6831 529.904 68.3976 531.435C74.1122 532.966 79.9905 529.572 81.5217 523.858C84.5807 512.441 96.3538 505.642 107.773 508.702C113.49 510.233 119.366 506.839 120.897 501.124C122.431 495.408 119.037 489.532 113.32 488Z" fill="#E2E2E2"></path> <path d="M444.419 121.84C445.951 116.123 442.557 110.248 436.842 108.716C414.012 102.599 390.46 116.196 384.343 139.027C382.811 144.744 386.206 150.62 391.92 152.151C397.637 153.683 403.513 150.288 405.044 144.574C408.103 133.157 419.876 126.358 431.295 129.418C437.009 130.951 442.888 127.557 444.419 121.84Z" fill="#E2E2E2"></path> </g> <defs> <clipPath id="clip0"> <rect width="150" height="150" fill="white" transform="translate(155.324) scale(4.00083) rotate(15)"></rect> </clipPath> </defs> </svg> 