<?xml version="1.0" encoding="UTF-8"?> <svg xmlns="http://www.w3.org/2000/svg" width="800" height="800" viewBox="0 0 800 800" fill="none"> <path d="M400 314.062C383.003 314.062 366.388 319.103 352.256 328.546C338.123 337.989 327.109 351.41 320.604 367.113C314.1 382.816 312.398 400.095 315.714 416.766C319.03 433.436 327.214 448.748 339.233 460.767C351.252 472.786 366.564 480.97 383.234 484.286C399.905 487.602 417.184 485.9 432.887 479.396C448.59 472.892 462.012 461.877 471.454 447.744C480.897 433.612 485.938 416.997 485.938 400C485.913 377.216 476.851 355.371 460.74 339.26C444.629 323.149 422.784 314.087 400 314.062ZM400 464.063C387.33 464.063 374.944 460.305 364.409 453.266C353.874 446.227 345.663 436.222 340.814 424.516C335.965 412.81 334.697 399.929 337.168 387.502C339.64 375.075 345.742 363.66 354.701 354.701C363.66 345.742 375.075 339.64 387.502 337.168C399.929 334.697 412.81 335.965 424.516 340.814C436.222 345.663 446.227 353.874 453.266 364.409C460.305 374.944 464.063 387.33 464.063 400C464.044 416.985 457.289 433.269 445.279 445.279C433.269 457.289 416.985 464.044 400 464.063Z" fill="#E2E2E2"></path> <path d="M437.5 389.062C434.599 389.062 431.817 390.215 429.766 392.266C427.715 394.317 426.562 397.099 426.562 400C426.546 404.651 425.316 409.217 422.993 413.247C420.67 417.277 417.335 420.63 413.318 422.975C412.078 423.699 410.991 424.659 410.122 425.803C409.252 426.946 408.616 428.249 408.25 429.639C407.884 431.028 407.795 432.475 407.989 433.899C408.182 435.322 408.654 436.693 409.378 437.934C410.101 439.175 411.062 440.262 412.206 441.131C413.349 442.001 414.652 442.637 416.041 443.003C417.431 443.369 418.878 443.458 420.302 443.264C421.725 443.071 423.096 442.599 424.337 441.875C431.653 437.598 437.725 431.485 441.952 424.14C446.179 416.796 448.415 408.474 448.437 400C448.437 397.099 447.285 394.317 445.234 392.266C443.183 390.215 440.401 389.062 437.5 389.062Z" fill="#E2E2E2"></path> <path d="M682.688 374.438C686.674 375.485 690.778 376.023 694.9 376.038C704.476 376.032 713.836 373.188 721.796 367.866C729.757 362.544 735.962 354.982 739.627 346.135C743.292 337.288 744.253 327.553 742.388 318.16C740.523 308.768 735.917 300.138 729.15 293.362C728.356 292.575 727.513 291.863 726.65 291.131C734.775 261.669 732.9 236.006 720.694 214.844C694.444 169.344 625.513 154.438 530.931 173.269C499.85 81.9437 452.45 29.6875 400 29.6875C347.55 29.6875 300.156 81.9375 269.044 173.275C174.444 154.431 105.531 169.344 79.2875 214.838C67.4562 235.275 65.3812 260.956 72.925 289.462C64.0207 296.434 57.8362 306.301 55.4434 317.353C53.0507 328.406 54.6005 339.947 59.8243 349.977C65.048 360.006 73.6165 367.892 84.0444 372.267C94.4723 376.643 106.102 377.231 116.919 373.931C123.406 382.562 130.512 391.294 138.169 400.037C74.6125 472.562 53.0562 539.706 79.2812 585.156C98.125 617.825 138.912 634.769 195.425 634.769C220.164 634.466 244.815 631.761 269.031 626.694C300.137 718.044 347.544 770.312 400 770.312C423.7 770.312 447.075 759.2 468.081 738.287C478.417 742.816 490.009 743.592 500.856 740.482C511.703 737.371 521.122 730.569 527.487 721.252C533.851 711.934 536.761 700.686 535.714 689.451C534.666 678.216 529.727 667.699 521.75 659.719C520.963 658.925 520.119 658.206 519.288 657.481C523.381 647.8 527.3 637.481 531 626.694C555.205 631.764 579.846 634.469 604.575 634.769C661.081 634.769 701.875 617.819 720.719 585.156C746.969 539.706 725.388 472.563 661.844 400.044C669.219 391.625 676.181 383.062 682.688 374.438ZM713.675 346.4C708.69 351.371 701.937 354.163 694.897 354.163C687.857 354.163 681.104 351.371 676.119 346.4C672.408 342.686 669.881 337.955 668.859 332.806C667.836 327.656 668.363 322.319 670.373 317.469C672.383 312.619 675.786 308.473 680.152 305.557C684.518 302.64 689.65 301.084 694.9 301.084C700.15 301.084 705.283 302.64 709.648 305.557C714.014 308.473 717.417 312.619 719.427 317.469C721.437 322.319 721.964 327.656 720.941 332.806C719.919 337.955 717.392 342.686 713.681 346.4H713.675ZM701.769 225.775C710.325 240.631 711.975 259.1 706.825 280.775C696.554 278.163 685.71 278.994 675.956 283.14C666.203 287.287 658.08 294.519 652.835 303.728C647.589 312.936 645.51 323.612 646.917 334.116C648.325 344.62 653.14 354.372 660.625 361.875C661.412 362.669 662.256 363.381 663.088 364.112C658.013 370.721 652.654 377.279 647.013 383.787C620.203 355.949 591.004 330.516 559.75 307.781C555.668 269.361 548.265 231.367 537.625 194.225C620.05 178.288 681.006 189.781 701.769 225.769V225.775ZM516.181 601.138C485.752 593.713 455.923 584.017 426.944 572.131C445.6 563.112 464.181 553.312 482.412 542.787C500.788 532.163 518.569 520.962 535.538 509.369C531.388 540.399 524.918 571.075 516.181 601.138ZM283.819 601.138C275.075 571.075 268.599 540.4 264.444 509.369C281.456 520.962 299.231 532.175 317.6 542.787C335.812 553.312 354.375 563.125 373.062 572.131C344.081 584.017 314.25 593.713 283.819 601.138ZM283.819 198.863C314.248 206.286 344.078 215.982 373.056 227.869C354.394 236.887 335.819 246.688 317.587 257.244C299.212 267.869 281.431 279.069 264.431 290.663C268.588 259.621 275.069 228.934 283.819 198.863ZM237.5 462.712C212.689 443.608 189.368 422.643 167.737 400C189.37 377.359 212.691 356.395 237.5 337.288C235.956 357.913 235.137 378.931 235.137 400C235.137 421.069 235.944 442.062 237.5 462.712ZM328.544 523.838C304.869 510.169 282.212 495.494 261 480.231C258.387 454.037 257.012 427.106 257.012 400C257.012 372.894 258.387 345.969 261 319.769C282.194 304.519 304.856 289.837 328.544 276.163C351.981 262.619 376.006 250.306 400.006 239.425C424.025 250.312 448.044 262.625 471.481 276.163C495.156 289.831 517.813 304.506 539.025 319.769C541.638 345.962 543.013 372.894 543.013 400C543.013 427.106 541.638 454.031 539.025 480.231C517.831 495.481 495.169 510.163 471.481 523.838C448.044 537.381 424.019 549.694 400.019 560.575C375.987 549.688 351.969 537.375 328.531 523.838H328.544ZM516.194 198.837C524.937 228.9 531.414 259.575 535.569 290.606C518.556 279.013 500.781 267.8 482.444 257.188C464.188 246.688 445.625 236.875 426.937 227.869C455.919 215.983 485.75 206.287 516.181 198.863L516.194 198.837ZM562.5 337.288C587.311 356.392 610.632 377.357 632.263 400C610.63 422.641 587.309 443.605 562.5 462.712C564.044 442.087 564.863 421.069 564.863 400C564.863 378.931 564.056 357.938 562.5 337.288ZM400 51.5625C441.487 51.5625 481.956 98.6188 509.469 177.969C471.965 187.292 435.337 199.839 399.994 215.469C364.655 199.837 328.031 187.29 290.531 177.969C318.05 98.6125 358.512 51.5625 400 51.5625ZM83.9312 346.4C79.572 342.054 76.8551 336.331 76.2434 330.206C75.6317 324.081 77.1633 317.933 80.5769 312.811C83.9906 307.689 89.075 303.909 94.9636 302.116C100.852 300.323 107.18 300.628 112.869 302.978C118.558 305.329 123.256 309.58 126.162 315.006C129.067 320.433 130.001 326.699 128.804 332.737C127.606 338.775 124.352 344.211 119.595 348.118C114.839 352.025 108.874 354.161 102.719 354.163C99.2282 354.177 95.7696 353.498 92.5435 352.166C89.3174 350.833 86.3879 348.873 83.925 346.4H83.9312ZM136.962 293.362C131.303 287.713 124.332 283.552 116.673 281.252C109.014 278.952 100.905 278.584 93.0687 280.181C88.0187 258.769 89.7062 240.494 98.225 225.806C118.994 189.8 179.95 178.306 262.375 194.25C251.734 231.395 244.33 269.391 240.244 307.812C208.989 330.524 179.787 355.934 152.975 383.75C146.887 376.725 141.2 369.742 135.912 362.8C136.256 362.475 136.625 362.175 136.962 361.844C146.035 352.754 151.131 340.436 151.131 327.594C151.131 314.751 146.035 302.433 136.962 293.344V293.362ZM98.2125 574.219C77.5 538.269 98.0125 479.712 153.006 416.25C179.81 444.075 209.003 469.495 240.25 492.219C244.332 530.639 251.735 568.633 262.375 605.775C179.944 621.7 118.987 610.213 98.225 574.219H98.2125ZM506.281 712.75C501.935 717.111 496.21 719.829 490.083 720.441C483.957 721.054 477.807 719.522 472.684 716.108C467.56 712.693 463.779 707.608 461.985 701.717C460.192 695.827 460.496 689.497 462.848 683.807C465.199 678.116 469.451 673.417 474.879 670.511C480.307 667.605 486.575 666.671 492.614 667.869C498.654 669.067 504.091 672.323 507.999 677.081C511.906 681.839 514.043 687.805 514.044 693.962C514.046 701.006 511.254 707.762 506.281 712.75ZM487.531 645.544C478.313 645.543 469.287 648.174 461.512 653.127C453.738 658.079 447.539 665.149 443.644 673.503C439.749 681.858 438.32 691.151 439.524 700.29C440.729 709.429 444.517 718.034 450.444 725.094C434.194 740.575 417.269 748.438 400.031 748.438C358.544 748.438 318.075 701.381 290.562 622.031C328.066 612.708 364.694 600.161 400.037 584.531C435.384 600.164 472.016 612.711 509.525 622.031C506.463 630.812 503.275 639.219 499.938 647.188C495.88 646.104 491.699 645.552 487.5 645.544H487.531ZM701.806 574.219C681.038 610.219 620.081 621.719 537.656 605.775C548.297 568.63 555.702 530.634 559.788 492.212C591.022 469.491 620.202 444.072 646.994 416.25C701.987 479.712 722.5 538.269 701.775 574.219H701.806Z" fill="#E2E2E2"></path> </svg> 