<?xml version="1.0" encoding="UTF-8"?> <svg xmlns="http://www.w3.org/2000/svg" width="735" height="735" viewBox="0 0 735 735" fill="none"> <g clip-path="url(#clip0)"> <path d="M179.013 394.657L215.243 404.365L221.714 380.212L185.485 370.504C165.475 365.143 144.908 377.017 139.547 397.026L126.603 445.333C121.242 465.342 133.116 485.909 153.125 491.27L189.355 500.978L195.827 476.824L159.597 467.116C152.928 465.329 148.969 458.473 150.756 451.804L163.7 403.497C165.487 396.828 172.343 392.87 179.013 394.657Z" fill="#E2E2E2"></path> <path d="M456.774 469.083L493.004 478.79L499.475 454.637L463.245 444.93C443.236 439.568 422.669 451.443 417.308 471.452L404.364 519.759C399.003 539.768 410.877 560.335 430.886 565.696L467.116 575.404L473.588 551.25L437.358 541.542C430.689 539.755 426.73 532.899 428.517 526.229L441.461 477.922C443.248 471.254 450.104 467.295 456.774 469.083Z" fill="#E2E2E2"></path> <path d="M208.765 428.513L148.386 412.334L141.914 436.487L202.293 452.665L208.765 428.513Z" fill="#E2E2E2"></path> <path d="M275.623 420.543L227.316 407.6L220.844 431.752L269.151 444.696L275.623 420.543Z" fill="#E2E2E2"></path> <path d="M262.678 468.854L214.371 455.91L207.9 480.063L256.206 493.006L262.678 468.854Z" fill="#E2E2E2"></path> <path d="M330.403 409.335C310.394 403.974 289.827 415.848 284.466 435.857L261.814 520.393L285.967 526.865L308.619 442.329C310.406 435.659 317.262 431.701 323.932 433.488C330.601 435.275 334.56 442.131 332.773 448.801L310.121 533.337L334.274 539.809L356.925 455.272C362.287 435.263 350.413 414.697 330.403 409.335Z" fill="#E2E2E2"></path> <path d="M378.709 422.279C358.7 416.917 338.133 428.792 332.772 448.801L310.12 533.337L334.273 539.809L356.925 455.272C358.712 448.603 365.568 444.644 372.238 446.431C378.907 448.219 382.866 455.075 381.079 461.744L358.427 546.281L382.58 552.753L405.231 468.216C410.593 448.207 398.719 427.64 378.709 422.279Z" fill="#E2E2E2"></path> <path d="M548.649 416.038C555.319 417.826 562.175 413.867 563.962 407.198L573.67 370.968C575.457 364.298 571.499 357.442 564.829 355.655L516.522 342.711L510.05 366.865L546.28 376.573L543.044 388.65L518.891 382.178C512.221 380.391 505.365 384.349 503.578 391.019L493.87 427.249C492.083 433.918 496.042 440.774 502.711 442.562L551.018 455.505L557.49 431.353L521.26 421.645L524.496 409.567L548.649 416.038Z" fill="#E2E2E2"></path> <path d="M635.786 284.064L309.719 196.694L322.662 148.387C328.024 128.378 316.149 107.811 296.14 102.45L199.527 76.5622C166.184 67.6718 131.936 87.4445 122.964 120.766L16.1793 519.294C7.28786 552.636 27.0617 586.885 60.3825 595.856L519.292 718.82C552.636 727.712 586.884 707.938 595.854 674.617L679.988 360.625C688.882 327.284 669.107 293.034 635.786 284.064ZM525.765 694.668L66.8542 571.703C46.8452 566.342 34.9707 545.775 40.3321 525.766L147.117 127.238C152.479 107.229 173.046 95.3547 193.055 100.716L289.667 126.603C296.337 128.39 300.295 135.247 298.508 141.916L285.565 190.222L213.105 170.806L206.633 194.959L629.314 308.216C649.323 313.577 661.197 334.145 655.836 354.154L571.702 668.146L571.703 668.146C566.341 688.155 545.775 700.03 525.765 694.668Z" fill="#E2E2E2"></path> <path d="M626.562 207.722L573.518 115.847C571.86 112.976 569.13 110.879 565.928 110.021L288.166 35.595C268.157 30.2336 247.59 42.108 242.229 62.117L232.521 98.3468L256.674 104.818L266.381 68.5887C268.168 61.919 275.025 57.9606 281.694 59.7478L554.456 132.834L602.32 215.737L584.244 283.197L608.397 289.668L627.812 217.209C628.67 214.006 628.222 210.594 626.562 207.722Z" fill="#E2E2E2"></path> <path d="M570.666 188.952C563.996 187.165 560.037 180.309 561.825 173.639L574.768 125.334L550.615 118.862L537.671 167.169C532.31 187.178 544.184 207.745 564.194 213.106L576.27 216.342L582.742 192.188L570.666 188.952Z" fill="#E2E2E2"></path> <path d="M508.954 612.505L110.426 505.72L103.955 529.872L502.482 636.657L508.954 612.505Z" fill="#E2E2E2"></path> <path d="M476.189 396.623L162.202 312.49L155.73 336.643L469.718 420.776L476.189 396.623Z" fill="#E2E2E2"></path> <path d="M491.735 193.687L358.897 158.093L352.425 182.245L485.263 217.839L491.735 193.687Z" fill="#E2E2E2"></path> <path d="M504.678 145.384L371.839 109.79L365.367 133.943L498.206 169.537L504.678 145.384Z" fill="#E2E2E2"></path> </g> <defs> <clipPath id="clip0"> <rect width="150" height="150" fill="white" transform="translate(155.324) scale(4.00083) rotate(15)"></rect> </clipPath> </defs> </svg> 