<?xml version="1.0" encoding="UTF-8"?> <svg xmlns="http://www.w3.org/2000/svg" width="441" height="441" viewBox="0 0 441 441" fill="none"> <g clip-path="url(#clip0)"> <path d="M247.894 187.143L213.464 177.918C209.714 176.913 205.859 179.139 204.854 182.889C203.849 186.64 206.075 190.495 209.825 191.5L244.255 200.725C248.005 201.73 251.86 199.504 252.865 195.754C253.87 192.003 251.644 188.148 247.894 187.143Z" fill="#E2E2E2"></path> <path d="M383.274 237.973L394.098 240.874L394.098 240.875C396.067 241.403 398.167 241.05 399.856 239.908C401.543 238.767 402.654 236.949 402.897 234.926C404.841 218.787 402.258 202.459 395.428 187.709C389.546 175.006 380.737 163.951 369.742 155.407C379.975 155.489 371.162 156.132 391.998 152.204C394.347 151.723 396.289 150.079 397.15 147.842C398.01 145.604 397.672 143.082 396.252 141.151L389.252 131.633C379.656 118.585 367.023 108.039 352.628 100.863C355.956 99.8646 359.267 98.954 362.79 98.2321C365.138 97.7503 367.08 96.1059 367.94 93.869C368.801 91.6315 368.462 89.1095 367.041 87.1788C357.876 74.7192 341.135 65.201 322.259 61.7193C307.676 59.0285 285.536 58.7241 260.47 71.3339C232.381 28.7788 185.132 20.3369 160.428 31.1608C158.232 32.1226 156.678 34.1372 156.305 36.5054C155.931 38.8735 156.79 41.2682 158.583 42.8591C161.425 45.3804 163.949 48.0588 166.457 50.8641C150.221 49.7813 133.808 52.5885 118.802 59.1651L107.983 63.9095C105.535 64.9821 103.908 67.3499 103.783 70.0198C103.658 72.689 105.057 75.1986 107.394 76.496L129.738 88.8998C96.9984 91.1612 68.2527 111.58 55.3431 141.798C54.5423 143.672 54.5944 145.801 55.4859 147.634C56.3768 149.466 58.0382 150.755 60.0075 151.282L70.8351 154.184C45.1221 170.289 40.9477 196.033 40.4617 197.067C39.4568 200.817 41.7008 204.605 45.4513 205.61L59.5402 209.385C46.8687 221.816 39.5495 238.738 39.2479 256.735C39.2126 258.867 40.1465 260.9 41.7867 262.262C43.4269 263.624 45.5972 264.168 47.6864 263.74L65.3846 260.118C56.8192 287.794 68.8449 308.092 69.5787 311.13C71.101 314.927 75.5145 316.61 79.1655 314.844L114.41 297.797C117.942 301.584 122.977 303.9 128.48 303.826C130.836 313.352 134.759 322.504 140.021 330.748L128.196 374.878C127.191 378.629 129.417 382.484 133.168 383.489L214.658 405.324C218.408 406.329 222.264 404.103 223.269 400.353L235.093 356.223C243.779 351.709 251.754 345.742 258.559 338.666C263.144 341.363 268.683 342.001 273.739 340.479L295.746 372.876C298.047 376.263 302.719 376.957 305.905 374.454C307.934 372.321 328.632 360.581 335.044 332.373L348.56 344.359C350.155 345.774 352.307 346.388 354.408 346.029C356.51 345.669 358.335 344.376 359.37 342.512C368.108 326.775 370.212 308.525 365.454 291.427L379.543 295.202C383.293 296.207 387.148 293.981 388.153 290.231L388.903 287.433C393.326 270.928 391.265 253.041 383.274 237.973ZM131.92 223.941C134.126 221.454 136.086 218.751 137.791 215.868L142.109 217.025C141.577 225.755 144.359 234.208 149.57 240.857C144.712 242.091 140.008 243.984 135.603 246.528C134.762 247.014 133.936 247.522 133.121 248.051L130.025 242.689C126.549 236.67 127.311 229.136 131.92 223.941ZM267.788 207.031C257.074 204.16 245.637 206.584 237 213.337L209.808 206.052C205.707 195.886 197.013 188.066 186.297 185.195C169.9 180.802 153.051 188.809 145.748 203.444L143.393 202.813C144.239 199.883 144.877 196.851 145.284 193.731C150.475 154.038 189.5 127.826 228.309 138.225L254.889 145.347C293.712 155.749 314.384 197.97 299.038 234.929C298.386 236.497 297.805 238.085 297.289 239.682L293.765 238.738C292.789 224.007 282.442 210.957 267.788 207.031ZM279.062 246.444C275.863 258.381 263.063 264.995 251.619 260.853C241.484 257.269 235.416 246.355 238.317 235.526C241.376 224.11 253.086 217.649 264.148 220.613C275.113 223.551 282.123 235.02 279.062 246.444ZM212.3 221.204L227.264 225.213C226.212 227.319 225.348 229.598 224.735 231.887C223.112 237.944 223.132 244.207 224.763 250.185L220.536 258.733C220.115 259.585 219.574 260.374 218.925 261.082C216.369 263.876 212.506 265.003 208.845 264.022C205.185 263.041 202.403 260.134 201.586 256.433C201.379 255.498 201.305 254.544 201.366 253.596L201.98 244.081C206.38 239.721 209.529 234.306 211.153 228.248C211.767 225.959 212.158 223.553 212.3 221.204ZM197.571 224.609C194.547 235.897 182.969 242.531 171.74 239.522C160.506 236.512 153.816 224.924 156.826 213.691C159.836 202.458 171.424 195.767 182.657 198.777C193.696 201.735 200.637 213.168 197.571 224.609ZM211.503 389.922L143.595 371.726L150.892 344.493C159.863 353.639 170.524 360.017 182.28 363.167C194.037 366.318 206.459 366.124 218.8 362.69L211.503 389.922ZM185.919 349.587C163.496 343.578 147.61 322.675 142.078 300.206L152.233 296.771C153.289 300.637 155.398 304.21 158.438 307.057C164.386 312.64 172.884 314.483 180.612 311.869L193.128 307.64C195.821 306.727 198.773 307.518 200.654 309.661L209.372 319.572C214.76 325.703 223.04 328.355 230.975 326.495C235.035 325.549 238.65 323.508 241.499 320.687L248.576 328.741C232.569 345.417 208.362 355.6 185.919 349.587ZM264.521 325.587C263.978 324.969 267.184 328.618 245.775 304.253C244.063 302.305 241.418 301.457 238.894 302.047C236.369 302.637 234.374 304.569 233.703 307.073C232.936 309.935 230.668 312.13 227.775 312.805C224.894 313.48 221.89 312.516 219.931 310.289L211.216 300.381C205.579 293.958 196.708 291.581 188.62 294.322L176.108 298.548C173.302 299.497 170.219 298.83 168.055 296.799C165.893 294.774 165.026 291.739 165.793 288.877C166.464 286.373 165.703 283.702 163.811 281.929C161.92 280.156 159.206 279.568 156.749 280.398C127.486 290.299 128.861 290.11 127.039 289.622C124.586 288.965 122.779 286.426 123.541 283.582C129.08 262.909 149.653 249.949 170.699 253.924C177.136 255.13 183.278 257.925 188.586 262.034C191.162 269.637 197.325 275.491 205.206 277.603C213.087 279.714 221.353 277.726 227.384 272.43C234.017 271.529 240.717 272.174 246.877 274.33C267.202 281.431 278.465 302.994 272.94 323.614C271.918 327.431 267.118 328.543 264.521 325.587ZM287.774 284.958L282.412 288.054C281.971 287.189 281.509 286.335 281.023 285.494C278.481 281.09 275.354 277.098 271.763 273.6C280.86 269.94 288.33 262.533 291.797 252.768L294.599 253.519C294.263 258.339 294.555 263.113 295.507 267.776C296.901 274.578 293.794 281.483 287.774 284.958ZM356.016 274.342C353.444 273.652 350.704 274.475 348.938 276.467C347.171 278.459 346.68 281.277 347.671 283.748L349.967 289.477C354.914 301.795 355.131 315.256 350.766 327.524L334.362 312.979C332.307 311.157 329.381 310.697 326.867 311.803C324.354 312.909 322.713 315.376 322.668 318.122C322.402 333.957 315.302 348.678 303.131 358.73L284.733 331.646C285.498 330.276 286.107 328.807 286.523 327.254C288.402 320.241 288.874 313.032 287.925 305.826C287.736 304.391 287.478 302.962 287.174 301.542L294.805 297.136C306.075 290.629 311.892 277.696 309.282 264.959C308.325 260.268 308.273 255.39 309.106 250.437C309.136 250.341 309.171 250.25 309.198 250.152C309.323 249.684 309.398 249.215 309.425 248.75C310.01 245.924 310.872 243.094 312.023 240.322C330.626 195.516 305.553 144.366 258.526 131.765L231.947 124.643C185.071 112.083 137.654 143.638 131.339 191.911C130.191 200.723 126.753 208.572 121.399 214.611C112.767 224.341 111.339 238.45 117.845 249.72L122.245 257.341C116.432 263.779 112.223 271.495 109.959 279.944C109.543 281.496 109.336 283.073 109.313 284.642L79.8382 298.9C74.3225 284.112 75.5339 267.811 83.2226 253.964C84.5561 251.563 84.3691 248.606 82.7454 246.392C81.1209 244.178 78.3565 243.112 75.6674 243.662L54.1884 248.058C58.6397 223.835 76.8284 213.738 78.756 211.694C80.8494 210.049 81.8342 207.363 81.2998 204.754C80.7654 202.146 78.8034 200.063 76.2323 199.374L56.0166 193.958C64.8612 168.974 86.0492 162.723 92.4849 157.927C94.9474 156.505 96.3111 153.739 95.9392 150.921C95.5683 148.101 93.5355 145.784 90.7883 145.048L71.8913 139.984C84.0611 118.383 106.195 104.393 131.378 102.884L148.333 101.866C151.171 101.696 153.627 99.8323 154.556 97.1449C155.485 94.4568 154.704 91.4755 152.576 89.5885C136.412 75.3501 144.419 81.0553 126.663 71.1108C144.258 63.9757 163.916 62.7441 182.293 67.6681L184.174 68.1722C187.322 69.0158 190.639 67.584 192.184 64.7137C193.729 61.8427 193.097 58.2863 190.659 56.1229C186.734 52.6403 183.418 48.8597 179.909 44.8571C178.907 43.7143 177.895 42.5615 176.861 41.4047C197.41 39.2275 231.154 48.2706 251.888 84.1851C253.83 87.5478 258.13 88.7 261.492 86.7585C285.306 73.0095 306.295 73.0737 319.71 75.5485C330.416 77.5231 340.416 81.8952 347.842 87.6222C346.402 88.0591 344.982 88.5015 343.576 88.941C338.536 90.5144 333.775 91.9997 328.549 93.0706C325.355 93.7248 323.03 96.4896 322.933 99.748C322.836 103.006 324.992 105.904 328.141 106.748L330.022 107.252C361.871 115.786 378.095 140.319 378.419 140.632L374.537 141.426L346.325 140.952C343.2 140.9 340.415 142.917 339.492 145.902C338.568 148.889 339.725 152.125 342.334 153.849L356.509 163.208C377.563 177.106 389.736 200.289 389.475 225.081L370.577 220.018C367.83 219.282 364.911 220.273 363.179 222.528C361.448 224.784 361.247 227.861 362.668 230.323L369.94 242.92C376.339 254.002 378.559 267.219 376.234 279.76L356.016 274.342L356.016 274.342Z" fill="#E2E2E2"></path> <path d="M265.12 162.645L210.793 148.088C207.043 147.083 203.187 149.309 202.182 153.06C201.177 156.81 203.403 160.665 207.154 161.67L261.481 176.227C265.231 177.232 269.087 175.006 270.092 171.256C271.097 167.505 268.871 163.65 265.12 162.645Z" fill="#E2E2E2"></path> </g> <defs> <clipPath id="clip0"> <rect width="90" height="90" fill="white" transform="translate(93.1942) scale(4.00083) rotate(15)"></rect> </clipPath> </defs> </svg> 