<?xml version="1.0" encoding="UTF-8"?> <svg xmlns="http://www.w3.org/2000/svg" width="120" height="120" viewBox="0 0 120 120" fill="none"> <path d="M60 0C26.915 0 0 26.915 0 60C0 93.085 26.915 120 60 120C93.085 120 120 93.085 120 60C120 26.915 93.085 0 60 0ZM90.41 47.285L57.91 79.785C56.935 80.76 55.655 81.25 54.375 81.25C53.095 81.25 51.815 80.76 50.84 79.785L34.59 63.535C32.635 61.58 32.635 58.42 34.59 56.465C36.545 54.51 39.705 54.51 41.66 56.465L54.375 69.18L83.34 40.215C85.295 38.26 88.455 38.26 90.41 40.215C92.365 42.17 92.365 45.33 90.41 47.285Z" fill="#F6F6F6"></path> </svg> 