<?xml version="1.0" encoding="UTF-8"?> <svg xmlns="http://www.w3.org/2000/svg" width="42" height="42" viewBox="0 0 42 42" fill="none"> <path fill-rule="evenodd" clip-rule="evenodd" d="M21 42C32.598 42 42 32.598 42 21C42 9.40202 32.598 0 21 0C9.40202 0 0 9.40202 0 21C0 32.598 9.40202 42 21 42ZM17.15 30.6249C17.6607 30.6249 17.8941 30.3976 18.1763 30.123L18.2 30.0999L20.7223 27.6473L25.9699 31.5242C26.9356 32.0571 27.6326 31.7812 27.8732 30.6276L31.318 14.3941C31.6707 12.9801 30.779 12.3387 29.8551 12.7582L9.62689 20.5581C8.24612 21.1119 8.25417 21.8822 9.37521 22.2255L14.5662 23.8457L26.584 16.2638C27.1513 15.9198 27.672 16.1047 27.2447 16.484L17.5074 25.2711L17.5073 25.2711L17.5073 25.2712L17.5069 25.2717L17.5073 25.272L17.15 30.6249Z" fill="#0E9695"></path> </svg> 